<?xml version="1.0" encoding="utf-8"?>
<!-- Svg Vector Icons : http://www.onlinewebfonts.com/icon -->
<!DOCTYPE svg PUBLIC "-//W3C//DTD SVG 1.1//EN" "http://www.w3.org/Graphics/SVG/1.1/DTD/svg11.dtd">
<svg version="1.1" xmlns="http://www.w3.org/2000/svg" xmlns:xlink="http://www.w3.org/1999/xlink" x="0px" y="0px" viewBox="0 0 1000 1000" enable-background="new 0 0 1000 1000" xml:space="preserve">
<metadata> Svg Vector Icons : http://www.onlinewebfonts.com/icon </metadata>
<g><g><path d="M880.3,10c28.9,0,54.4,11.1,76.6,33.2c22.1,22.1,33.2,47.6,33.2,76.6v760.5c0,28.9-11.1,54.4-33.2,76.6c-22.1,22.1-47.6,33.2-76.6,33.2H119.7c-30.6,0-56.6-11.1-77.8-33.2C20.6,934.7,10,909.2,10,880.3V663.3h109.7v216.9h760.5V119.7H119.7v216.9H10V119.7c0-28.9,10.6-54.4,31.9-76.6C63.2,21.1,89.1,10,119.7,10H880.3z M395.4,696.5l140.4-142.9H10V446.4h525.7L395.4,303.5l76.6-76.6L745,500L471.9,773.1L395.4,696.5z"/></g></g>
</svg>